#!OML:ASF I:\golf\golf\golf 2\Subject 1\2002-09-07\Subject1.ASF
:FULLY-SPECIFIED
:DEGREES
383
root -6.74051 18.0288 -4.05967 -167.801 -4.3059 -175.233
lowerback -10.6728 16.5088 14.1812
upperback -14.0922 18.6355 0.298883
thorax -5.38949 7.10197 -5.04904
lowerneck -6.72432 -20.7233 -5.77717
upperneck 11.2444 -29.2034 6.30969
head 6.22957 -14.3098 0.22825
rclavicle 5.84427e-014 8.34896e-014
rhumerus 94.6258 31.11 -59.9887
rradius 70.7178
rwrist -0.375999
rhand -50.9058 38.7113
rfingers 7.12502
rthumb -23.4583 10.1214
lclavicle 5.84427e-014 8.34896e-014
lhumerus 55.9793 20.1454 40.3389
lradius 70.5527
lwrist 4.95907
lhand 146.297 198.825
lfingers 7.12502
lthumb -186.893 -131.308
rfemur 18.2856 -4.43963 23.8194
rtibia 11.1963
rfoot 32.5062 -32.8906
rtoes 24.3464
lfemur -25.8191 -17.604 -14.387
ltibia 26.396
lfoot 45.6441 -44.0109
ltoes 55.147
384
root -6.733 18.0332 -4.04453 -167.627 -4.15282 -175.171
lowerback -10.6549 16.4558 14.252
upperback -13.9763 18.5748 0.335763
thorax -5.27044 7.08763 -5.04486
lowerneck -6.78419 -20.6681 -5.64515
upperneck 11.0123 -29.059 6.21619
head 6.12347 -14.2403 0.222622
rclavicle -2.22639e-014 -2.06736e-014
rhumerus 94.268 30.7863 -59.9464
rradius 70.3564
rwrist -1.61064
rhand -50.2868 38.563
rfingers 7.12502
rthumb -22.8643 9.89836
lclavicle -2.22639e-014 -2.06736e-014
lhumerus 55.9548 19.5319 39.4956
lradius 69.8561
lwrist 5.88101
lhand 146.969 199.022
lfingers 7.12502
lthumb -186.244 -131.09
rfemur 18.1387 -4.22553 23.9377
rtibia 11.1395
rfoot 31.717 -33.6466
rtoes 25.438
lfemur -26.0319 -17.6128 -14.2021
ltibia 26.3452
lfoot 45.605 -43.7819
ltoes 55.2561
385
root -6.72354 18.0391 -4.02935 -167.471 -3.93393 -175.011
lowerback -10.6801 16.4156 14.3753
upperback -13.7473 18.5252 0.434112
thorax -5.00643 7.09911 -4.97482
lowerneck -7.18578 -20.6132 -5.61246
upperneck 10.927 -28.9203 6.22579
head 6.1483 -14.1496 0.200145
rclavicle -1.51474e-013 -8.98507e-014
rhumerus 94.0888 30.4567 -59.9083
rradius 69.8265
rwrist -2.50907
rhand -48.8621 38.0051
rfingers 7.12502
rthumb -21.4966 9.1779
lclavicle -1.51474e-013 -8.98507e-014
lhumerus 55.7793 18.9964 38.1855
lradius 69.3244
lwrist 7.01729
lhand 146.989 199.711
lfingers 7.12502
lthumb -186.224 -130.401
rfemur 17.9353 -4.11856 24.0749
rtibia 11.165
rfoot 31.5958 -33.5689
rtoes 25.3761
lfemur -26.2143 -17.5622 -13.9173
ltibia 26.2707
lfoot 45.3699 -43.7587
ltoes 55.164
386
root -6.71615 18.0445 -4.01332 -167.434 -3.66827 -174.912
lowerback -10.5293 16.3042 14.4472
upperback -13.4598 18.443 0.549147
thorax -4.79231 7.10941 -4.91137
lowerneck -8.03329 -20.5484 -5.44873
upperneck 11.2457 -28.7721 6.01782
head 6.32176 -14.0371 0.0383742
rclavicle 1.78906e-014 4.45278e-014
rhumerus 93.965 30.1346 -60.0145
rradius 69.1506
rwrist -3.0166
rhand -47.6203 36.6552
rfingers 7.12502
rthumb -20.3035 7.69645
lclavicle 1.78906e-014 4.45278e-014
lhumerus 55.8681 18.509 37.2202
lradius 68.5557
lwrist 7.95018
lhand 147.135 199.92
lfingers 7.12502
lthumb -186.084 -130.187
rfemur 17.8255 -4.18953 24.0248
rtibia 11.2776
rfoot 32.0605 -32.6137
rtoes 24.1563
lfemur -26.2292 -17.525 -13.7618
ltibia 26.1733
lfoot 45.0039 -43.663
ltoes 55.0099
387
root -6.71053 18.0488 -3.99295 -167.391 -3.37304 -175.035
lowerback -10.245 16.1765 14.3548
upperback -13.3228 18.375 0.57683
thorax -4.82873 7.10531 -4.91394
lowerneck -8.38316 -20.423 -5.29113
upperneck 11.3912 -28.5503 5.78545
head 6.35544 -13.9198 -0.0526218
rclavicle -1.60618e-013 -7.4743e-014
rhumerus 93.4899 29.9032 -60.2889
rradius 68.5655
rwrist -3.52622
rhand -47.0855 36.9667
rfingers 7.12502
rthumb -19.7894 7.95414
lclavicle -1.60618e-013 -7.4743e-014
lhumerus 55.8856 17.7912 36.4151
lradius 67.7666
lwrist 8.7019
lhand 147.301 200.042
lfingers 7.12502
lthumb -185.924 -130.061
rfemur 17.7362 -4.25809 23.7268
rtibia 11.3695
rfoot 32.0125 -32.2375
rtoes 24.0628
lfemur -26.2486 -17.5334 -13.8563
ltibia 26.0808
lfoot 44.5611 -43.6191
ltoes 54.9181
388
root -6.70204 18.0516 -3.97043 -167.29 -3.1508 -175.058
lowerback -10.0467 16.0621 14.307
upperback -13.2847 18.2769 0.643109
thorax -4.93915 7.05842 -4.89286
lowerneck -8.30506 -20.2285 -5.32515
upperneck 11.3738 -28.2702 5.77696
head 6.327 -13.7891 -0.0084915
rclavicle 1.61811e-013 7.4743e-014
rhumerus 92.8132 29.8336 -60.6287
rradius 68.0689
rwrist -4.10666
rhand -46.6994 37.9912
rfingers 7.12502
rthumb -19.4183 8.94084
lclavicle 1.61811e-013 7.4743e-014
lhumerus 55.7597 16.9603 35.6384
lradius 67.0297
lwrist 9.30464
lhand 147.354 200.415
lfingers 7.12502
lthumb -185.873 -129.686
rfemur 17.5401 -4.22045 23.6471
rtibia 11.5146
rfoot 31.4283 -32.4185
rtoes 24.3239
lfemur -26.3555 -17.4307 -13.8197
ltibia 25.9735
lfoot 44.5335 -43.4971
ltoes 54.9675
389
root -6.69038 18.0547 -3.9482 -167.17 -3.01664 -174.937
lowerback -9.97804 15.9296 14.2897
upperback -13.2297 18.1127 0.794083
thorax -4.99411 6.9778 -4.77882
lowerneck -8.34634 -19.984 -5.47068
upperneck 11.5691 -27.972 5.91575
head 6.42236 -13.6348 0.0558173
rclavicle -1.09332e-013 -3.26007e-014
rhumerus 92.2325 29.8477 -60.9723
rradius 67.3959
rwrist -4.57035
rhand -46.4965 38.5928
rfingers 7.12502
rthumb -19.2232 9.52291
lclavicle -1.09332e-013 -3.26007e-014
lhumerus 55.7641 16.1794 35.1751
lradius 66.1647
lwrist 9.6944
lhand 147.808 200.277
lfingers 7.12502
lthumb -185.434 -129.812
rfemur 17.2541 -4.14042 23.8057
rtibia 11.759
rfoot 30.857 -32.4844
rtoes 23.9486
lfemur -26.4902 -17.2679 -13.6033
ltibia 25.8401
lfoot 44.788 -43.229
ltoes 55.0893
390
root -6.67955 18.06 -3.92639 -167.059 -2.82423 -174.94
lowerback -9.90005 15.8081 14.1409
upperback -13.1757 17.9792 0.916561
thorax -5.07318 6.9231 -4.63262
lowerneck -8.28408 -19.7858 -5.50403
upperneck 11.66 -27.7004 5.87581
head 6.42646 -13.508 0.0822928
rclavicle -4.96962e-014 -7.07673e-014
rhumerus 91.5877 29.8064 -61.2454
rradius 66.7367
rwrist -5.04124
rhand -46.7373 38.8456
rfingers 7.12502
rthumb -19.4547 9.79891
lclavicle -4.96962e-014 -7.07673e-014
lhumerus 55.8373 15.2969 34.7793
lradius 65.266
lwrist 10.0254
lhand 148.288 199.988
lfingers 7.12502
lthumb -184.971 -130.09
rfemur 16.9959 -4.04377 23.8026
rtibia 11.9695
rfoot 30.2748 -32.5856
rtoes 23.3824
lfemur -26.6012 -17.2157 -13.5091
ltibia 25.7141
lfoot 44.5461 -43.276
ltoes 54.9767
391
root -6.67271 18.0657 -3.90534 -166.987 -2.55435 -175.028
lowerback -9.73452 15.6996 13.9825
upperback -13.1281 17.8876 1.00451
thorax -5.18905 6.88906 -4.52977
lowerneck -8.05965 -19.6631 -5.35073
upperneck 11.5049 -27.4515 5.52022
head 6.25519 -13.4167 0.0448288
rclavicle 1.00585e-013 1.00187e-013
rhumerus 90.7849 29.7349 -61.4554
rradius 66.3786
rwrist -5.6935
rhand -46.7646 38.1557
rfingers 7.12502
rthumb -19.481 9.11162
lclavicle 1.00585e-013 1.00187e-013
lhumerus 55.9248 14.359 34.4034
lradius 64.3786
lwrist 10.3613
lhand 148.78 199.838
lfingers 7.12502
lthumb -184.496 -130.23
rfemur 16.7933 -4.01829 23.6057
rtibia 12.1644
rfoot 29.7243 -32.6951
rtoes 23.1889
lfemur -26.6343 -17.2535 -13.5289
ltibia 25.5748
lfoot 44.0282 -43.4042
ltoes 54.7443
392
root -6.66804 18.0707 -3.88431 -166.95 -2.29327 -175.019
lowerback -9.52411 15.5724 13.9898
upperback -13.0776 17.768 1.09811
thorax -5.28947 6.82857 -4.50721
lowerneck -7.97602 -19.4831 -5.20498
upperneck 11.4961 -27.1495 5.20763
head 6.15981 -13.2889 -0.00133486
rclavicle -1.145e-013 -9.78021e-014
rhumerus 90.0067 29.7374 -61.7838
rradius 66.0003
rwrist -6.33386
rhand -46.2014 37.8329
rfingers 7.12502
rthumb -18.9393 8.73498
lclavicle -1.145e-013 -9.78021e-014
lhumerus 55.9962 13.4675 34.0764
lradius 63.506
lwrist 10.8319
lhand 149.449 199.306
lfingers 7.12502
lthumb -183.849 -130.749
rfemur 16.5841 -4.04005 23.4693
rtibia 12.4293
rfoot 29.5135 -32.4987
rtoes 22.9203
lfemur -26.61 -17.2768 -13.4712
ltibia 25.4015
lfoot 43.6666 -43.2259
ltoes 54.6649
393
root -6.66204 18.0771 -3.86276 -166.889 -2.05852 -174.997
lowerback -9.35397 15.4379 14.0061
upperback -13.0212 17.6296 1.18232
thorax -5.35982 6.7602 -4.49016
lowerneck -7.96916 -19.2568 -5.12721
upperneck 11.5733 -26.8222 5.05937
head 6.13692 -13.1366 -0.012632
rclavicle 1.64991e-013 8.66701e-014
rhumerus 89.2755 29.7284 -62.1831
rradius 65.4639
rwrist -6.7441
rhand -45.7453 37.8795
rfingers 7.12502
rthumb -18.5007 8.73924
lclavicle 1.64991e-013 8.66701e-014
lhumerus 56.0832 12.5804 33.6644
lradius 62.6215
lwrist 11.6033
lhand 149.845 198.647
lfingers 7.12502
lthumb -183.467 -131.401
rfemur 16.3505 -4.06193 23.3808
rtibia 12.6952
rfoot 29.7431 -31.9309
rtoes 21.9045
lfemur -26.6247 -17.2023 -13.4048
ltibia 25.2365
lfoot 43.3552 -43.1601
ltoes 54.5507
394
root -6.65426 18.0826 -3.83989 -166.817 -1.80924 -175.048
lowerback -9.23359 15.3084 13.8976
upperback -12.9388 17.4979 1.27507
thorax -5.40701 6.71073 -4.39391
lowerneck -7.74939 -19.0453 -5.09881
upperneck 11.3324 -26.5024 5.05118
head 6.00522 -12.9928 0.0572731
rclavicle 8.90555e-014 6.44062e-014
rhumerus 88.5251 29.6952 -62.4647
rradius 65.0062
rwrist -7.13895
rhand -45.5957 37.5187
rfingers 7.12502
rthumb -18.3568 8.36481
lclavicle 8.90555e-014 6.44062e-014
lhumerus 56.2127 11.6595 33.2946
lradius 61.7408
lwrist 12.3116
lhand 149.897 198.231
lfingers 7.12502
lthumb -183.417 -131.817
rfemur 16.1093 -4.12672 23.2128
rtibia 12.9468
rfoot 30.2737 -31.1244
rtoes 20.3823
lfemur -26.6619 -17.0389 -13.4272
ltibia 25.0905
lfoot 43.1241 -43.3155
ltoes 54.3693
